<svg xmlns="http://www.w3.org/2000/svg" width="1200" height="675" viewBox="0 0 1200 675" role="img"><defs>
<linearGradient id="diary-bg" x1="0" y1="0" x2="1" y2="1"><stop offset="0%" stop-color="#d7e1e8"/><stop offset="46%" stop-color="#b9c6c8"/><stop offset="100%" stop-color="#d5dccf"/></linearGradient>
<filter id="diary-blur"><feGaussianBlur stdDeviation="30"/></filter>
<filter id="diary-noise"><feTurbulence type="fractalNoise" baseFrequency="0.58" numOctaves="3" seed="13"/><feColorMatrix type="saturate" values="0"/><feComponentTransfer><feFuncA type="table" tableValues="0 0.16"/></feComponentTransfer></filter>
<pattern id="diary-dots" width="22" height="22" patternUnits="userSpaceOnUse"><circle cx="3" cy="3" r="1.4" fill="#f4f6f2" opacity="0.8"/></pattern>
</defs>
<rect width="1200" height="675" fill="url(#diary-bg)"/>
<rect width="1200" height="675" filter="url(#diary-noise)"/>
<circle cx="250" cy="166" r="170" fill="#6f8fa8" opacity="0.48" filter="url(#diary-blur)"/>
<circle cx="858" cy="210" r="192" fill="#87968b" opacity="0.42" filter="url(#diary-blur)"/>
<circle cx="690" cy="532" r="184" fill="#7b8f8c" opacity="0.4" filter="url(#diary-blur)"/>
<circle cx="1070" cy="104" r="178" fill="none" stroke="#eef2ec" stroke-width="2" opacity="0.58"/>
<circle cx="842" cy="676" r="230" fill="#5f788d" opacity="0.24"/>
<rect x="996" y="72" width="110" height="110" fill="url(#diary-dots)" opacity="0.74"/>
<rect x="84" y="468" width="156" height="88" fill="url(#diary-dots)" opacity="0.42"/>
<rect x="934" y="492" width="150" height="98" fill="url(#diary-dots)" opacity="0.48"/>
<path d="M140 470 C260 386 332 548 464 450 S694 354 822 438 1014 480 1080 390" fill="none" stroke="#314655" stroke-width="3" opacity="0.2"/>
<path d="M168 180 C308 130 392 212 520 174 S760 94 928 158" fill="none" stroke="#44574d" stroke-width="2" opacity="0.18"/>
<rect x="24" y="30" width="1152" height="615" rx="16" fill="#f5f6ef" fill-opacity="0.16" stroke="#eef2ec" stroke-opacity="0.65"/>
<g font-family="system-ui, -apple-system, BlinkMacSystemFont, 'Segoe UI', sans-serif" fill="#5c5268">
<path d="M84 116l30-30 18 18-30 30-27 8zM118 82l8-8c4-4 11-4 15 0l4 4c4 4 4 11 0 15l-8 8z" fill="#34404a" opacity="0.9"/>
</g><text x="158" y="108" font-family="system-ui, -apple-system, BlinkMacSystemFont, 'Segoe UI', sans-serif" font-size="60" font-weight="700" text-anchor="start" dominant-baseline="middle" fill="#202b33" opacity="0.78">Tech</text><g font-family="system-ui, -apple-system, BlinkMacSystemFont, 'Segoe UI', sans-serif" font-weight="700" font-size="84" text-anchor="middle" fill="#202b33"><text x="600" y="330">ブログタイトル画像ジェネレータ</text></g></svg>